<svg xmlns="http://www.w3.org/2000/svg" viewBox="0 0 64 64" fill="none">
  <defs>
    <linearGradient id="centrifuge-gradient" x1="0%" y1="0%" x2="100%" y2="100%">
      <stop offset="0%" style="stop-color:#FFC012"/>
      <stop offset="100%" style="stop-color:#FF9F1C"/>
    </linearGradient>
  </defs>
  <circle cx="32" cy="32" r="30" fill="url(#centrifuge-gradient)"/>
  <path d="M32 12C20.954 12 12 20.954 12 32s8.954 20 20 20 20-8.954 20-20S43.046 12 32 12zm0 36c-8.837 0-16-7.163-16-16s7.163-16 16-16 16 7.163 16 16-7.163 16-16 16z" fill="#fff"/>
  <path d="M32 20c-6.627 0-12 5.373-12 12s5.373 12 12 12 12-5.373 12-12-5.373-12-12-12zm0 20c-4.418 0-8-3.582-8-8s3.582-8 8-8 8 3.582 8 8-3.582 8-8 8z" fill="#fff"/>
  <circle cx="32" cy="32" r="4" fill="#fff"/>
  <path d="M32 16v8M32 40v8M16 32h8M40 32h8" stroke="#fff" stroke-width="2" stroke-linecap="round"/>
</svg>
